<svg width="15" height="12" viewBox="0 0 15 12" fill="none" xmlns="http://www.w3.org/2000/svg">
<path d="M9.75583 0.69679L14.47 5.41096C14.6262 5.56723 14.714 5.77915 14.714 6.00012C14.714 6.22109 14.6262 6.43302 14.47 6.58929L9.75583 11.3035C9.59867 11.4553 9.38816 11.5393 9.16967 11.5374C8.95117 11.5355 8.74216 11.4478 8.58765 11.2933C8.43314 11.1388 8.3455 10.9298 8.34361 10.7113C8.34171 10.4928 8.4257 10.2823 8.5775 10.1251L11.8692 6.83346H0.833333C0.61232 6.83346 0.400358 6.74566 0.244078 6.58938C0.0877973 6.4331 0 6.22114 0 6.00012C0 5.77911 0.0877973 5.56715 0.244078 5.41087C0.400358 5.25459 0.61232 5.16679 0.833333 5.16679H11.8692L8.5775 1.87512C8.49791 1.79825 8.43442 1.7063 8.39075 1.60463C8.34707 1.50296 8.32409 1.39361 8.32312 1.28296C8.32216 1.17231 8.34325 1.06257 8.38515 0.960161C8.42705 0.857748 8.48893 0.764705 8.56717 0.686461C8.64542 0.608217 8.73846 0.546339 8.84087 0.504438C8.94329 0.462538 9.05302 0.441453 9.16367 0.442414C9.27432 0.443376 9.38367 0.466364 9.48534 0.510039C9.58701 0.553713 9.67896 0.617198 9.75583 0.69679Z" fill="white"/>
</svg>
