<svg width="13" height="13" viewBox="0 0 13 13" fill="none" xmlns="http://www.w3.org/2000/svg">
<path d="M4 9.33333C4 9.33333 8.66667 10 10.6667 12H11.3333C11.7015 12 12 11.7015 12 11.3333V7.29133C12.5751 7.14333 13 6.62127 13 6C13 5.37873 12.5751 4.85667 12 4.70867V0.666667C12 0.29848 11.7015 0 11.3333 0H10.6667C8.66667 2 4 2.66667 4 2.66667H1.33333C0.596953 2.66667 0 3.26362 0 4V8C0 8.7364 0.596953 9.33333 1.33333 9.33333H2L2.66667 12.6667H4V9.33333ZM5.33333 3.77413C5.78887 3.6764 6.35167 3.54129 6.95953 3.36249C8.07833 3.03343 9.5 2.51508 10.6667 1.71639V10.2836C9.5 9.48493 8.07833 8.9666 6.95953 8.63753C6.35167 8.45873 5.78887 8.3236 5.33333 8.22587V3.77413ZM1.33333 4H4V8H1.33333V4Z" fill="#B9B6C3"/>
</svg>
